<svg xmlns="http://www.w3.org/2000/svg" width="512" height="512" xml:space="preserve"><circle fill="#6ECAD5" cx="256" cy="256" r="256"/><path opacity=".1" d="M262.971 511.902c129.693-3.468 235.326-103.392 247.789-230.647L361.86 136.31 105.434 239.257l51.457 52.946 9.117 53.888-39.48 30.093 136.443 135.718z"/><path fill="#E6E6E6" d="M132.105 215.053H386.25v145.768H132.105z"/><path fill="#F05B88" d="M393.899 371.447a6.374 6.374 0 0 1-6.373 6.375H129.128a6.375 6.375 0 0 1-6.375-6.375v-4.249a6.378 6.378 0 0 1 6.375-6.377h258.398a6.377 6.377 0 0 1 6.373 6.377v4.249z"/><path fill="#F7931E" d="M296.149 221.425h69.7v139.396h-69.7z"/><path fill="#44BACA" d="M305.075 229.077h51.849v58.862h-51.849z"/><path fill="#65C0CB" d="M305.075 287.938v-58.861h51.849z"/><path fill="#238CBA" d="M305.075 229.077v1.911h50.256v56.95h1.593v-58.861z"/><path fill="#40B0BF" d="M305.075 295.585h51.849v58.862h-51.849z"/><path fill="#44BACA" d="M356.924 295.585h-51.849v58.862z"/><path fill="#238CBA" d="M305.075 354.447v-1.912h50.256v-56.95h1.593v58.862z"/><path fill="#B9BBBD" d="M306.669 291.127a4.782 4.782 0 1 1-4.781-4.784 4.785 4.785 0 0 1 4.781 4.784z"/><path fill="#F2F2F2" d="M306.351 291.127a4.461 4.461 0 0 1-4.463 4.458 4.46 4.46 0 1 1 0-8.923 4.465 4.465 0 0 1 4.463 4.465z"/><path fill="#E68A1E" d="M258.326 310.248c0 2.23-1.993 4.04-4.451 4.04h-91.822c-2.459 0-4.451-1.81-4.451-4.04 0-2.228 1.992-4.035 4.451-4.035h91.822c2.458 0 4.451 1.808 4.451 4.035z"/><g><path fill="#F7931E" d="M163.552 226.102h88.399v80.111h-88.399z"/><path fill="#44BACA" d="M172.053 232.263h73.097v73.95h-73.097z"/><path fill="#65C0CB" d="M172.053 306.213v-73.95h73.096z"/><path fill="#238CBA" d="M172.053 232.263v2.401h70.851v71.549h2.245v-73.95z"/><path fill="#E68A1E" d="M258.326 229.077c0 2.23-1.993 4.038-4.451 4.038h-91.822c-2.459 0-4.451-1.807-4.451-4.038 0-2.228 1.992-4.035 4.451-4.035h91.822c2.458 0 4.451 1.807 4.451 4.035z"/></g><path fill="#E8608D" d="M363.299 160.315v-19.761c0-3.52-2.799-6.376-6.249-6.376H155.244c-3.45 0-6.248 2.856-6.248 6.376v19.761h214.303z"/><g><path fill="#E76C8A" d="M97.559 226.53c.493 9.343 8.204 16.776 17.669 16.776 9.467 0 17.176-7.433 17.67-16.776H97.559z"/><path fill="#FFF" d="M132.898 226.53c.494 9.343 8.204 16.776 17.67 16.776 9.467 0 17.176-7.433 17.67-16.776h-35.34z"/><path fill="#E76C8A" d="M168.239 226.53c.495 9.343 8.202 16.776 17.669 16.776s17.177-7.433 17.671-16.776h-35.34z"/><path fill="#FFF" d="M202.989 226.53c.495 9.343 8.203 16.776 17.67 16.776 9.467 0 17.176-7.433 17.67-16.776h-35.34z"/><path fill="#E65782" d="M238.33 226.53c.495 9.343 8.204 16.776 17.67 16.776s17.176-7.433 17.671-16.776H238.33z"/><g><path fill="#E76C8A" d="M414.441 226.53c-.496 9.343-8.204 16.776-17.669 16.776-9.469 0-17.179-7.433-17.672-16.776h35.341z"/><path fill="#FFF" d="M379.101 226.53c-.495 9.343-8.203 16.776-17.669 16.776-9.468 0-17.176-7.433-17.672-16.776h35.341z"/><path fill="#E76C8A" d="M343.76 226.53c-.494 9.343-8.203 16.776-17.67 16.776-9.466 0-17.174-7.433-17.668-16.776h35.338z"/><path fill="#FFF" d="M309.009 226.53c-.494 9.343-8.201 16.776-17.669 16.776-9.466 0-17.176-7.433-17.672-16.776h35.341z"/><path fill="#E76C8A" d="M273.668 226.53c-.493 9.343-8.201 16.776-17.668 16.776s-17.176-7.433-17.67-16.776h35.338z"/></g><g><path fill="#D45078" d="M251.075 226.53H97.511l51.03-67.569h102.534z"/><path fill="#D6D6D6" d="M247.164 226.53H132.947l40.282-67.569h77.846z"/><path fill="#D45078" d="M247.164 226.53h-79.162l29.647-67.569h53.426z"/><path fill="#D6D6D6" d="M253.675 226.53h-50.686l19.032-67.569h30.708z"/><path fill="#D45078" d="M256 158.961h-9.36l-8.31 67.569H256z"/></g><g><path fill="#D45078" d="M260.924 226.53h153.565l-51.03-67.569H260.924z"/><path fill="#D6D6D6" d="M264.834 226.53h114.218l-40.281-67.569h-77.847z"/><path fill="#D45078" d="M264.834 226.53h79.163l-29.645-67.569h-53.428z"/><path fill="#D6D6D6" d="M258.325 226.53h50.684l-19.032-67.569h-30.706z"/><path fill="#D45078" d="M256 158.961h9.359l8.312 67.569H256z"/></g><path fill="#D45078" d="M252.729 158.961h5.596v67.569h-5.596z"/></g></svg>